HIERARCHY
ROOT Hips
{
	OFFSET 0.000000 0.000000 0.000000
	CHANNELS 6 Xposition Yposition Zposition Xrotation Yrotation Zrotation
	JOINT C_ctrl
	{
		OFFSET 0.000000 35.040482 -0.000011
		CHANNELS 3 Xrotation Yrotation Zrotation
		JOINT Bip01
		{
			OFFSET -41.537640 41.789009 -0.000007
			CHANNELS 3 Xrotation Yrotation Zrotation
			JOINT Bip01_Pelvis
			{
				OFFSET -2.462887 0.000000 0.000000
				CHANNELS 3 Xrotation Yrotation Zrotation
				JOINT BN_Tail_01
				{
					OFFSET -11.399368 7.351341 -0.000013
					CHANNELS 3 Xrotation Yrotation Zrotation
					JOINT BN_Tail_02
					{
						OFFSET -11.365196 -0.343025 0.000012
						CHANNELS 3 Xrotation Yrotation Zrotation
						JOINT BN_Tail_03
						{
							OFFSET -15.076256 -0.454979 0.000017
							CHANNELS 3 Xrotation Yrotation Zrotation
							JOINT BN_Tail_04
							{
								OFFSET -17.395691 -0.525002 0.000016
								CHANNELS 3 Xrotation Yrotation Zrotation
								JOINT BN_Tail_05
								{
									OFFSET -16.699837 -0.504005 0.000016
									CHANNELS 3 Xrotation Yrotation Zrotation
									End Site
									{
										OFFSET 0.503998 -16.699829 0.000067
									}
								}
							}
						}
					}
				}
				JOINT Bip01_Spine
				{
					OFFSET 8.297798 5.916809 -0.000020
					CHANNELS 3 Xrotation Yrotation Zrotation
					JOINT Bip01_R_Thigh
					{
						OFFSET -8.297779 -5.916794 10.541781
						CHANNELS 3 Xrotation Yrotation Zrotation
						JOINT Bip01_R_Calf
						{
							OFFSET 5.631542 -22.906792 0.862690
							CHANNELS 3 Xrotation Yrotation Zrotation
							JOINT Bip01_R_HorseLink
							{
								OFFSET -16.984341 -19.231926 -3.555767
								CHANNELS 3 Xrotation Yrotation Zrotation
								JOINT Bip01_R_Foot
								{
									OFFSET 4.290367 -24.783146 0.578056
									CHANNELS 3 Xrotation Yrotation Zrotation
									JOINT Bip01_R_Toe0
									{
										OFFSET 3.561211 -5.815116 0.760802
										CHANNELS 3 Xrotation Yrotation Zrotation
										JOINT Bip01_R_Toe0Nub
										{
											OFFSET 16.135469 0.002017 1.534789
											CHANNELS 3 Xrotation Yrotation Zrotation
											End Site
											{
												OFFSET -0.000002 16.208284 -0.000056
											}
										}
									}
								}
							}
						}
					}
					JOINT Bip01_L_Thigh
					{
						OFFSET -8.297813 -5.916832 -10.541739
						CHANNELS 3 Xrotation Yrotation Zrotation
						JOINT Bip01_L_Calf
						{
							OFFSET 5.631535 -22.906792 -0.862625
							CHANNELS 3 Xrotation Yrotation Zrotation
							JOINT Bip01_L_HorseLink
							{
								OFFSET -16.984318 -19.231949 3.555875
								CHANNELS 3 Xrotation Yrotation Zrotation
								JOINT Bip01_L_Foot
								{
									OFFSET 4.290367 -24.783169 -0.577965
									CHANNELS 3 Xrotation Yrotation Zrotation
									JOINT Bip01_L_Toe0
									{
										OFFSET 3.561245 -5.815111 -0.760799
										CHANNELS 3 Xrotation Yrotation Zrotation
										JOINT Bip01_L_Toe0Nub
										{
											OFFSET 6.574303 -0.000005 -1.538561
											CHANNELS 3 Xrotation Yrotation Zrotation
											End Site
											{
												OFFSET 0.000004 -6.751935 0.000023
											}
										}
									}
								}
							}
						}
					}
					JOINT Bip01_Spine1
					{
						OFFSET 20.556803 -4.626213 -0.000025
						CHANNELS 3 Xrotation Yrotation Zrotation
						JOINT Saddle
						{
							OFFSET 17.608810 18.174690 -0.000143
							CHANNELS 3 Xrotation Yrotation Zrotation
							End Site
							{
								OFFSET -0.000063 -0.000061 -22.448387
							}
						}
						JOINT BN_center
						{
							OFFSET 10.743275 -13.417107 -0.172041
							CHANNELS 3 Xrotation Yrotation Zrotation
							End Site
							{
								OFFSET 22.434088 0.553078 -0.579614
							}
						}
						JOINT Bip01_Spine2
						{
							OFFSET 24.765072 -2.054115 -0.000032
							CHANNELS 3 Xrotation Yrotation Zrotation
							JOINT Handle
							{
								OFFSET 63.735676 16.430748 -16.052464
								CHANNELS 3 Xrotation Yrotation Zrotation
								JOINT IK_Chain01
								{
									OFFSET -4.713058 -6.020439 0.185448
									CHANNELS 3 Xrotation Yrotation Zrotation
									End Site
									{
										OFFSET -0.000023 -0.000023 -7.648071
									}
								}
							}
							JOINT BN_hair04_01
							{
								OFFSET 1.987491 16.256981 -2.049672
								CHANNELS 3 Xrotation Yrotation Zrotation
								JOINT BN_hair04_02
								{
									OFFSET -1.318762 -3.831451 -6.174704
									CHANNELS 3 Xrotation Yrotation Zrotation
									JOINT BN_hair04_03
									{
										OFFSET -0.827490 -5.886627 -5.656666
										CHANNELS 3 Xrotation Yrotation Zrotation
										End Site
										{
											OFFSET -2.658262 5.010620 -5.929780
										}
									}
								}
							}
							JOINT Bip01_Neck
							{
								OFFSET 25.574577 9.433014 -0.000084
								CHANNELS 3 Xrotation Yrotation Zrotation
								JOINT Bip01_R_Clavicle
								{
									OFFSET -16.535652 0.011192 6.705692
									CHANNELS 3 Xrotation Yrotation Zrotation
									JOINT Bip01_R_UpperArm
									{
										OFFSET 20.272621 -12.959984 2.510816
										CHANNELS 3 Xrotation Yrotation Zrotation
										JOINT Bip01_R_Forearm
										{
											OFFSET -13.633509 -15.503704 -0.653585
											CHANNELS 3 Xrotation Yrotation Zrotation
											JOINT Bip01_R_Hand
											{
												OFFSET 2.580030 -27.804676 -1.136415
												CHANNELS 3 Xrotation Yrotation Zrotation
												JOINT Bip01_R_Finger0
												{
													OFFSET -0.281744 -19.659061 -0.398649
													CHANNELS 3 Xrotation Yrotation Zrotation
													JOINT Bip01_Xtra02
													{
														OFFSET 4.152210 -5.712314 0.433813
														CHANNELS 3 Xrotation Yrotation Zrotation
														JOINT Bip01_Xtra02Nub
														{
															OFFSET 15.457960 0.041654 0.507982
															CHANNELS 3 Xrotation Yrotation Zrotation
															End Site
															{
																OFFSET -15.421730 -0.157725 -1.163459
															}
														}
													}
													JOINT Bip01_R_Finger0Nub
													{
														OFFSET 8.362326 -9.718440 -0.143142
														CHANNELS 3 Xrotation Yrotation Zrotation
														End Site
														{
															OFFSET -1.213036 -0.198171 9.872291
														}
													}
												}
											}
										}
									}
								}
								JOINT Bip01_L_Clavicle
								{
									OFFSET -16.535673 0.011162 -6.705583
									CHANNELS 3 Xrotation Yrotation Zrotation
									JOINT Bip01_L_UpperArm
									{
										OFFSET 20.272615 -12.959999 -2.510836
										CHANNELS 3 Xrotation Yrotation Zrotation
										JOINT Bip01_L_Forearm
										{
											OFFSET -13.633495 -15.503681 0.653678
											CHANNELS 3 Xrotation Yrotation Zrotation
											JOINT Bip01_L_Hand
											{
												OFFSET 2.579988 -27.804686 1.136487
												CHANNELS 3 Xrotation Yrotation Zrotation
												JOINT Bip01_L_Finger0
												{
													OFFSET -0.281765 -19.659058 0.398696
													CHANNELS 3 Xrotation Yrotation Zrotation
													JOINT Bip01_Xtra01
													{
														OFFSET 4.083549 -5.738758 -0.666714
														CHANNELS 3 Xrotation Yrotation Zrotation
														JOINT Bip01_Xtra01Nub
														{
															OFFSET 6.758158 -0.395525 -0.023239
															CHANNELS 3 Xrotation Yrotation Zrotation
															End Site
															{
																OFFSET 6.764923 -0.254147 -0.029908
															}
														}
													}
													JOINT Bip01_L_Finger0Nub
													{
														OFFSET -0.012636 -9.629153 0.045740
														CHANNELS 3 Xrotation Yrotation Zrotation
														End Site
														{
															OFFSET 0.988407 0.004791 8.293357
														}
													}
												}
											}
										}
									}
								}
								JOINT BN_hair03_01
								{
									OFFSET -5.894140 16.270622 -2.498433
									CHANNELS 3 Xrotation Yrotation Zrotation
									JOINT BN_hair03_02
									{
										OFFSET -0.189278 -7.800507 -6.219162
										CHANNELS 3 Xrotation Yrotation Zrotation
										JOINT BN_hair03_03
										{
											OFFSET 0.612345 -10.844475 -3.370718
											CHANNELS 3 Xrotation Yrotation Zrotation
											End Site
											{
												OFFSET -2.273296 2.862007 -10.769416
											}
										}
									}
								}
								JOINT Bip01_Neck1
								{
									OFFSET 9.383755 11.908699 -0.000007
									CHANNELS 3 Xrotation Yrotation Zrotation
									JOINT BN_hair02_01
									{
										OFFSET 9.126320 18.808022 -1.420810
										CHANNELS 3 Xrotation Yrotation Zrotation
										JOINT BN_hair02_02
										{
											OFFSET 0.393478 -5.181091 -5.248574
											CHANNELS 3 Xrotation Yrotation Zrotation
											JOINT BN_hair02_03
											{
												OFFSET 0.762280 -8.167076 -0.230047
												CHANNELS 3 Xrotation Yrotation Zrotation
												End Site
												{
													OFFSET -0.025837 -1.251419 -8.109770
												}
											}
										}
									}
									JOINT Bip01_Head
									{
										OFFSET 14.266129 10.475403 -0.000008
										CHANNELS 3 Xrotation Yrotation Zrotation
										JOINT BN_Reins_01
										{
											OFFSET 18.547455 -15.740112 -0.000035
											CHANNELS 3 Xrotation Yrotation Zrotation
											JOINT BN_Reins_02
											{
												OFFSET -5.372810 -5.884506 0.000028
												CHANNELS 3 Xrotation Yrotation Zrotation
												JOINT BN_Reins_03
												{
													OFFSET -6.395866 -15.947449 0.000070
													CHANNELS 3 Xrotation Yrotation Zrotation
													JOINT BN_Halter_R_01
													{
														OFFSET -1.234055 -3.096100 7.096737
														CHANNELS 3 Xrotation Yrotation Zrotation
														End Site
														{
															OFFSET 10.514435 -4.176861 -0.000004
														}
													}
													JOINT BN_Halter_L_01
													{
														OFFSET -1.234062 -3.096146 -7.096726
														CHANNELS 3 Xrotation Yrotation Zrotation
														End Site
														{
															OFFSET -10.514435 4.176865 -0.000000
														}
													}
													JOINT BN_Reins_04
													{
														OFFSET -6.737644 -16.971684 0.000074
														CHANNELS 3 Xrotation Yrotation Zrotation
														JOINT BN_Halter_R_02
														{
															OFFSET -4.688869 -11.781956 7.096771
															CHANNELS 3 Xrotation Yrotation Zrotation
															End Site
															{
																OFFSET 14.669624 -5.827511 -0.000006
															}
														}
														JOINT BN_Halter_L_02
														{
															OFFSET -4.688892 -11.782017 -7.096693
															CHANNELS 3 Xrotation Yrotation Zrotation
															End Site
															{
																OFFSET -14.669624 5.827507 -0.000002
															}
														}
														JOINT BN_Reins_05
														{
															OFFSET -6.822578 -16.971161 0.000074
															CHANNELS 3 Xrotation Yrotation Zrotation
															JOINT BN_Reins_06
															{
																OFFSET -6.140354 -15.095148 0.000066
																CHANNELS 3 Xrotation Yrotation Zrotation
																End Site
																{
																	OFFSET -15.095150 6.140352 -0.000002
																}
															}
														}
													}
												}
											}
										}
										JOINT BN_hair01_01
										{
											OFFSET 8.957344 8.870956 0.112121
											CHANNELS 3 Xrotation Yrotation Zrotation
											JOINT BN_hair01_02
											{
												OFFSET 6.002075 -2.962952 -3.121264
												CHANNELS 3 Xrotation Yrotation Zrotation
												End Site
												{
													OFFSET 5.917702 3.813591 -2.232396
												}
											}
										}
										JOINT BN_Eyebrow_R
										{
											OFFSET 11.795959 -0.430496 4.449781
											CHANNELS 3 Xrotation Yrotation Zrotation
											JOINT Bip01_Xtra06Nub
											{
												OFFSET 2.936661 -0.262573 3.246701
												CHANNELS 3 Xrotation Yrotation Zrotation
												End Site
												{
													OFFSET 2.768745 0.208199 3.394807
												}
											}
										}
										JOINT BN_Eyebrow_L
										{
											OFFSET 11.586395 -0.445618 -4.441728
											CHANNELS 3 Xrotation Yrotation Zrotation
											JOINT Bip01_Xtra05Nub
											{
												OFFSET 3.244698 -0.349442 -4.416700
												CHANNELS 3 Xrotation Yrotation Zrotation
												End Site
												{
													OFFSET 3.053162 0.072495 -4.564033
												}
											}
										}
										JOINT Bip01_R_Ear_01
										{
											OFFSET 7.142960 7.567184 4.311657
											CHANNELS 3 Xrotation Yrotation Zrotation
											JOINT Bip01_Xtra04Nub
											{
												OFFSET 9.464531 9.264214 1.682953
												CHANNELS 3 Xrotation Yrotation Zrotation
												End Site
												{
													OFFSET 8.448181 10.159340 1.910823
												}
											}
										}
										JOINT Bip01__L_Ear_01
										{
											OFFSET 7.214943 7.717056 -4.356771
											CHANNELS 3 Xrotation Yrotation Zrotation
											JOINT Bip01_Xtra03Nub
											{
												OFFSET 9.230225 8.944366 -2.322746
												CHANNELS 3 Xrotation Yrotation Zrotation
												End Site
												{
													OFFSET 8.170288 9.841324 -2.643566
												}
											}
										}
										JOINT Bip01_Jaw
										{
											OFFSET 9.196068 -4.110695 -0.000013
											CHANNELS 3 Xrotation Yrotation Zrotation
											JOINT Bip01_Ponytail1Nub
											{
												OFFSET 10.976463 -21.082108 -0.000053
												CHANNELS 3 Xrotation Yrotation Zrotation
												End Site
												{
													OFFSET 11.247093 -20.938980 0.000113
												}
											}
										}
										JOINT Bip01_HeadNub
										{
											OFFSET 29.954575 -18.249489 -0.000063
											CHANNELS 3 Xrotation Yrotation Zrotation
											End Site
											{
												OFFSET -9.198448 -13.366348 0.000168
											}
										}
									}
								}
							}
						}
					}
				}
			}
		}
	}
}
MOTION
Frames: 4
Frame Time: 0.033333
0.000000 0.000000 0.000000 0.000008 0.000000 -0.000000 -0.000000 0.000000 -0.000000 0.072820 -0.055538 -37.357726 1.553888 -2.018785 -2.735864 3.288394 8.186820 10.532993 -2.632029 3.621324 34.318053 0.002508 -0.181176 -3.599706 -1.050543 -1.778149 -32.309752 -3.562208 0.264916 71.727505 -2.219436 1.759661 16.825415 10.648326 10.407747 -31.391833 6.951500 -1.919068 -37.105313 -9.667786 -6.517590 61.630682 7.816295 -11.185815 -53.687428 0.095357 0.125195 -0.460163 -0.000073 -0.000372 -0.000046 -8.130686 -9.533032 -16.982415 -8.140523 2.838797 -44.671660 10.730815 10.477207 82.347322 -0.110119 -0.697132 -29.831408 -0.462764 -0.173829 -2.218615 -0.007979 0.000199 -0.038736 1.909784 -0.432634 -7.075136 -1.414653 0.287190 30.267495 0.946276 -0.120822 -1.028405 0.659833 0.331625 -6.884437 0.000019 -0.000152 -17.303096 -0.000042 -0.027854 0.027949 1.881450 1.572114 1.462663 6.612613 11.512011 -15.509068 4.975590 5.266143 -6.968503 -0.615672 -0.098904 5.200091 -0.035305 3.130411 14.371017 -0.732086 -5.637310 12.329284 0.447682 -1.456982 37.853793 4.025178 0.218307 -64.918400 7.311863 3.212257 -56.242486 -1.353290 3.861729 5.945702 -0.802215 0.160646 -0.479862 -0.804177 0.123486 -0.482676 0.714494 -0.955909 0.983493 -1.481450 3.559197 28.636668 -0.125133 0.836115 20.724664 -3.538415 -0.409253 -30.523057 2.984781 -10.345235 -14.317779 -1.098814 6.839184 2.000623 0.028250 0.072067 2.451894 -0.000933 0.100618 2.451938 0.813358 -0.381751 3.750319 0.188366 0.966029 -3.088110 1.253643 -0.653560 2.203645 -0.411483 -0.855310 6.871044 2.724005 8.359959 3.181501 3.115794 0.134879 -7.300204 7.555169 -1.162180 -11.194034 -1.738111 0.359786 -13.360440 -0.000103 -0.000399 -40.728339 -0.275623 0.541054 23.263459 -0.000108 -0.000109 -36.642981 -4.502554 1.615172 1.958387 15.599583 -4.347821 6.481137 -0.000178 -0.000143 -56.975952 -23.901229 -11.934631 -2.559230 34.949214 16.671932 -5.206575 -0.000099 -0.000119 -38.694914 0.000033 0.000035 -0.000046 14.255129 26.864541 7.050759 3.793914 -2.164389 11.409749 0.000059 -0.000075 0.000053 0.024227 -0.030062 11.786577 0.000034 -0.000070 0.000034 0.023231 -0.032287 11.715965 0.885391 1.335113 -11.105658 0.050312 0.015114 11.755976 -1.290238 -1.929232 -11.270269 0.050165 0.014752 11.743112 -0.109279 0.546896 0.694944 -0.004392 -0.052777 11.750676 0.000052 -0.000036 11.750660 
0.000000 0.000000 0.000000 0.000008 0.000000 -0.000000 -0.000000 0.000000 -0.000000 -0.000691 0.000571 -37.637542 1.854408 -1.801263 -2.918658 4.855727 6.809206 5.910976 -3.865103 4.783001 37.287485 -0.053426 0.370729 7.421012 -1.106128 -1.875363 -32.268218 -1.983306 1.154347 45.938401 -2.471842 1.520839 17.167607 10.910081 10.339828 -32.186519 6.867982 -1.863365 -36.599746 -9.531225 -6.239444 60.078139 8.158784 -11.700860 -55.923311 0.095357 0.125196 -0.460163 -0.000074 -0.000373 -0.000045 -8.590195 -9.396608 -19.342954 -7.937537 2.663406 -43.323443 10.699198 10.145422 80.664985 -0.376317 -0.219349 -31.481657 -0.462763 -0.173827 -2.218617 -0.007979 0.000201 -0.038739 1.951524 -0.439357 -7.309272 -1.440213 0.277059 30.778106 1.015530 -0.127074 -1.020919 0.702042 0.333353 -7.228700 0.000020 -0.000151 -17.019354 -0.000042 -0.027854 0.027947 1.881422 1.572106 1.462647 6.612616 11.512013 -15.509070 4.975558 5.266141 -6.968492 -0.617847 -0.102783 5.468469 -0.093858 3.320082 15.343325 -0.977676 -5.821510 11.828597 0.485649 -1.507757 39.400636 3.977595 0.327792 -62.087219 7.222438 3.329960 -55.014780 -1.353270 3.861701 5.945717 -0.802241 0.160645 -0.479876 -0.804178 0.123485 -0.482675 0.655100 -0.461546 -2.351161 -1.772894 3.019005 33.545255 -0.062460 0.619285 15.219215 -3.211566 -0.559055 -21.979354 3.170078 -10.348875 -12.942204 -1.098813 6.839184 2.000621 0.028278 0.072068 2.451896 -0.000934 0.100618 2.451940 0.813275 -0.381758 3.750335 0.188368 0.966035 -3.088102 1.253641 -0.653558 2.203635 -0.414356 -0.858546 7.157981 3.434690 7.598107 2.864130 2.218550 0.155562 -7.275893 7.037756 -0.947859 -9.494089 -1.858413 0.378847 -13.747950 -0.000103 -0.000399 -40.728336 -0.273956 0.528681 24.061872 -0.000109 -0.000110 -36.859857 -5.187611 2.212392 -1.383454 15.396208 -5.161923 3.579028 -0.000179 -0.000143 -57.309549 -23.901229 -11.934632 -2.559228 34.949241 16.671916 -5.206593 -0.000099 -0.000119 -38.906431 0.000033 0.000035 -0.000053 14.311903 26.337385 6.295297 6.235754 -0.460390 12.280743 0.000062 -0.000080 0.000048 0.024242 -0.030061 11.786606 0.000038 -0.000070 0.000027 0.023240 -0.032276 11.715946 0.885347 1.335132 -11.105645 0.050325 0.015139 11.755977 -1.290252 -1.929226 -11.270297 0.050175 0.014775 11.743100 -0.167304 0.827342 0.551029 -0.004532 -0.052610 11.750676 0.000052 -0.000036 11.750654 
0.000000 0.000000 0.000000 0.000008 0.000000 -0.000000 -0.000000 0.000000 -0.000000 -0.076355 0.059342 -37.833015 1.185577 -1.731984 -2.595869 6.187976 5.275955 1.450549 -4.946279 5.883540 38.444618 -0.639497 1.558592 20.658361 -1.124496 -1.919560 -32.096063 0.012583 -0.078923 6.518050 -1.755463 1.497618 16.884450 11.060107 10.313896 -32.164505 6.908732 -1.890409 -36.846050 -9.422378 -6.030443 58.897589 8.422402 -12.187651 -58.214952 0.095329 0.125196 -0.460169 -0.000074 -0.000373 -0.000046 -9.061281 -9.248424 -21.854391 -7.710382 2.476702 -41.845110 10.629966 9.628328 78.034679 -0.942836 0.600194 -34.816039 -0.462763 -0.173829 -2.218611 -0.007978 0.000200 -0.038741 1.987191 -0.445566 -7.455758 -1.389065 0.272618 30.934494 1.083442 -0.133156 -1.013561 0.738208 0.334053 -7.512912 0.000022 -0.000151 -16.624433 -0.000042 -0.027854 0.027950 1.881421 1.572105 1.462643 6.612612 11.512006 -15.509068 4.975555 5.266136 -6.968494 -0.620127 -0.106890 5.737053 -0.149535 3.497421 16.238225 -1.221597 -6.022916 12.001572 0.468259 -1.484853 38.698892 3.864171 0.542196 -56.346516 7.140653 3.432535 -53.916513 -1.353261 3.861683 5.945732 -0.802267 0.160645 -0.479876 -0.804178 0.123485 -0.482674 0.626128 0.078042 -5.945602 -2.014910 2.402219 38.645726 -0.017347 0.370729 9.057230 -2.867272 -0.658412 -13.329213 3.289097 -10.336431 -12.068008 -1.098813 6.839185 2.000621 0.028332 0.072068 2.451893 -0.000933 0.100618 2.451937 0.813467 -0.381730 3.750321 0.188368 0.966050 -3.088094 1.253646 -0.653558 2.203635 -0.417436 -0.862061 7.445329 4.222500 6.005488 2.188852 1.407464 0.158844 -6.770902 5.832052 -0.521834 -6.077257 -1.960515 0.402965 -14.154654 -0.000103 -0.000399 -40.728339 -0.270224 0.507894 24.930957 -0.000109 -0.000110 -37.072488 -5.435033 2.463992 -2.662717 15.156540 -5.949260 0.726628 -0.000181 -0.000143 -57.643518 -23.901228 -11.934631 -2.559229 34.949245 16.671921 -5.206619 -0.000100 -0.000120 -39.113816 0.000033 0.000035 -0.000051 13.858358 25.991378 5.993184 8.590704 1.281752 12.938480 0.000060 -0.000076 0.000050 0.024257 -0.030056 11.786624 0.000046 -0.000044 0.000033 0.023253 -0.032279 11.715921 0.885264 1.335165 -11.105663 0.050350 0.015187 11.755988 -1.290275 -1.929217 -11.270271 0.050190 0.014799 11.743095 -0.227701 1.133445 0.404066 -0.004514 -0.052631 11.750675 0.000052 -0.000036 11.750660 
0.000000 0.000000 0.000000 0.000008 0.000000 -0.000000 -0.000000 0.000000 -0.000000 -0.160733 0.125561 -37.987405 -0.139297 -1.759307 -1.933085 7.009839 3.971866 -1.971904 -5.408961 6.391817 38.652891 -1.858845 2.766641 32.188069 -1.116879 -1.935783 -31.713757 -0.287105 -1.584399 -25.981355 -0.377479 1.591010 16.200789 11.125685 10.318547 -31.540140 7.045544 -1.983076 -37.678110 -9.339405 -5.877823 58.027341 8.616600 -12.664548 -60.580622 0.095330 0.125194 -0.460170 -0.000074 -0.000374 -0.000044 -9.553493 -9.075983 -24.541882 -7.461317 2.282888 -40.257733 10.505102 8.965162 74.637712 -1.750790 1.749168 -39.528145 -0.462764 -0.173830 -2.218615 -0.007977 0.000199 -0.038735 2.023388 -0.452119 -7.561154 -1.337416 0.268249 31.092425 1.152027 -0.139324 -1.006130 0.774963 0.334291 -7.784260 0.000023 -0.000150 -16.089105 -0.000042 -0.027854 0.027951 1.881421 1.572104 1.462643 6.612615 11.512006 -15.509070 4.975561 5.266133 -6.968497 -0.622505 -0.111219 6.012572 -0.193569 3.645784 16.934086 -1.459834 -6.212758 12.811955 0.413150 -1.408184 36.395520 3.680553 0.808493 -48.693836 7.044112 3.544010 -52.682304 -1.353239 3.861556 5.945729 -0.802322 0.160644 -0.479882 -0.804178 0.123485 -0.482675 0.634055 0.631543 -9.626390 -2.225430 1.744265 43.747881 0.000884 0.115301 2.811042 -2.529174 -0.703027 -5.010158 3.366705 -10.315318 -11.506697 -1.098667 6.839189 2.000598 0.028441 0.072069 2.451892 -0.000933 0.100618 2.451940 0.813450 -0.381725 3.750312 0.188374 0.966083 -3.088067 1.253647 -0.653560 2.203643 -0.420528 -0.865627 7.735543 4.944933 4.420008 1.509273 1.045337 0.160058 -6.549235 4.390151 -0.178941 -3.150043 -2.063719 0.433406 -14.562754 -0.000103 -0.000399 -40.728339 -0.260540 0.481764 25.828975 -0.000110 -0.000111 -37.280334 -5.382705 2.330151 -1.689050 14.945048 -6.563787 -1.517181 -0.000182 -0.000143 -57.966566 -23.901228 -11.934633 -2.559230 34.949252 16.671906 -5.206663 -0.000101 -0.000120 -39.316645 0.000033 0.000035 -0.000050 13.540369 25.062677 4.730371 10.466196 2.744229 13.491712 0.000061 -0.000081 0.000053 0.024291 -0.030046 11.786666 0.000047 -0.000040 0.000037 0.023286 -0.032268 11.715876 0.885432 1.335096 -11.105637 0.050400 0.015282 11.756005 -1.290325 -1.929194 -11.270276 0.050214 0.014847 11.743087 -0.287912 1.442734 0.255950 -0.004497 -0.052652 11.750675 0.000052 -0.000036 11.750657 
